<svg class="svg-icon" style="width: 1em; height: 1em;vertical-align: middle;fill: currentColor;overflow: hidden;" viewBox="0 0 1024 1024" version="1.1" xmlns="http://www.w3.org/2000/svg"><path d="M886.4 422.628571L782.857143 98.857143a10.56 10.56 0 0 0-10.171429-7.428572h-88.457143c-4.685714 0-8.685714 2.971429-10.171428 7.428572l-104.342857 323.771428c-0.342857 1.028571-0.571429 2.171429-0.571429 3.314286 0 5.828571 4.8 10.628571 10.628572 10.628572h64.457142c4.8 0 8.914286-3.2 10.285715-7.771429l20-70.4h101.714285l19.771429 70.285714c1.257143 4.571429 5.485714 7.771429 10.285714 7.771429h69.942857c1.142857 0 2.171429-0.114286 3.2-0.457143 2.742857-0.914286 4.914286-2.742857 6.285715-5.257143 1.257143-2.514286 1.485714-5.371429 0.685714-8.114286zM684.914286 298.857143l37.485714-133.6h7.2l36.685714 133.6h-81.371428z m164 563.314286H700.8v-0.457143l151.542857-215.885715c1.257143-1.828571 1.942857-3.885714 1.942857-6.171428v-41.6c0-5.828571-4.8-10.628571-10.628571-10.628572h-233.142857c-5.828571 0-10.628571 4.8-10.628572 10.628572v49.142857c0 5.828571 4.8 10.628571 10.628572 10.628571h140.114285v0.457143L598.514286 874.171429a10.685714 10.685714 0 0 0-1.942857 6.171428v41.6c0 5.828571 4.8 10.628571 10.628571 10.628572h241.6c5.828571 0 10.628571-4.8 10.628571-10.628572v-49.142857a10.514286 10.514286 0 0 0-10.514285-10.628571zM402.285714 729.142857h-86.857143V123.428571c0-5.028571-4.114286-9.142857-9.142857-9.142857h-64c-5.028571 0-9.142857 4.114286-9.142857 9.142857v605.714286h-86.857143c-7.657143 0-12 8.914286-7.2 14.857143l128 162.171429a9.142857 9.142857 0 0 0 14.4 0l128-162.171429c4.685714-5.942857 0.457143-14.857143-7.2-14.857143z"  /></svg>